<?xml version="1.0" standalone="no"?>
<!DOCTYPE svg PUBLIC "-//W3C//DTD SVG 20010904//EN"
 "http://www.w3.org/TR/2001/REC-SVG-20010904/DTD/svg10.dtd">
<svg version="1.0" xmlns="http://www.w3.org/2000/svg"
 width="1000.000000pt" height="1000.000000pt" viewBox="0 0 1000.000000 1000.000000"
 preserveAspectRatio="xMidYMid meet">
<metadata>
Created by potrace 1.14, written by Peter Selinger 2001-2017
</metadata>
<g transform="translate(0.000000,1000.000000) scale(0.100000,-0.100000)"
fill="#000000" stroke="none">
<path d="M2119 7179 c-7 -4 -17 -5 -21 -3 -4 3 -8 0 -8 -5 0 -6 -6 -11 -12
-11 -14 0 -68 -63 -68 -79 0 -6 -5 -11 -11 -11 -5 0 -8 -4 -4 -9 3 -5 1 -12
-4 -16 -6 -3 -8 -12 -4 -20 3 -8 1 -15 -5 -15 -5 0 -12 -9 -15 -20 -6 -25 -3
-16 -37 -97 -16 -37 -27 -70 -24 -74 2 -4 -3 -9 -11 -12 -8 -4 -12 -15 -10
-25 2 -11 -5 -29 -16 -41 -11 -12 -15 -21 -9 -21 7 0 4 -7 -4 -16 -14 -14 -21
-35 -17 -56 0 -5 -3 -8 -9 -8 -5 0 -10 -9 -10 -20 0 -11 -5 -20 -11 -20 -5 0
-8 -4 -4 -9 3 -5 1 -12 -5 -16 -6 -4 -8 -11 -5 -16 4 -5 1 -9 -4 -9 -6 0 -10
-3 -9 -7 3 -15 -14 -63 -23 -63 -5 0 -6 -7 -3 -15 4 -8 1 -15 -7 -15 -7 0 -10
-3 -6 -6 3 -4 0 -19 -9 -35 -8 -16 -11 -29 -7 -29 5 0 3 -4 -3 -8 -10 -7 -49
-99 -49 -117 0 -5 -4 -13 -8 -16 -5 -3 -10 -12 -12 -20 -9 -38 -18 -59 -27
-59 -5 0 -7 -4 -4 -9 3 -4 -3 -27 -14 -49 -11 -23 -20 -48 -20 -56 0 -8 -6
-21 -12 -28 -7 -7 -15 -22 -16 -33 -2 -11 -7 -22 -12 -25 -4 -3 -6 -13 -4 -22
1 -10 -3 -18 -9 -18 -5 0 -7 -3 -4 -7 4 -3 -1 -12 -11 -20 -9 -8 -11 -11 -4
-8 10 6 11 3 3 -11 -5 -11 -17 -37 -27 -59 -22 -54 -29 -72 -52 -127 -11 -25
-18 -49 -14 -52 3 -3 0 -6 -6 -6 -7 0 -12 -7 -12 -16 0 -8 -5 -25 -12 -37 -7
-12 -13 -31 -15 -42 -2 -10 -7 -22 -11 -25 -4 -3 -9 -14 -10 -25 -2 -11 -10
-24 -18 -28 -8 -4 -14 -13 -14 -20 0 -7 4 -6 10 3 5 8 10 10 10 4 0 -6 -7 -17
-15 -24 -9 -7 -13 -15 -11 -18 3 -2 0 -14 -6 -26 -7 -11 -13 -26 -14 -31 -1
-6 -12 -33 -24 -60 -12 -27 -23 -54 -24 -60 -2 -5 -10 -28 -20 -50 -9 -22 -53
-130 -98 -240 -44 -110 -86 -213 -93 -230 -7 -16 -23 -57 -36 -90 -13 -33 -29
-71 -36 -84 -6 -14 -10 -28 -7 -33 3 -4 0 -8 -6 -8 -6 0 -8 -4 -5 -10 3 -5 1
-10 -4 -10 -6 0 -10 -3 -9 -7 3 -8 -28 -90 -65 -173 -11 -24 -21 -49 -22 -55
-10 -38 -19 -55 -27 -55 -5 0 -7 -4 -4 -9 3 -4 -3 -27 -14 -49 -11 -23 -20
-48 -20 -57 0 -8 -5 -15 -11 -15 -6 0 -9 -7 -5 -15 3 -8 1 -15 -5 -15 -6 0 -8
-4 -4 -9 3 -5 1 -12 -5 -16 -6 -4 -8 -11 -5 -16 4 -5 2 -9 -4 -9 -5 0 -12 -14
-16 -30 -4 -17 -11 -30 -16 -30 -6 0 -7 -4 -4 -10 3 -5 0 -20 -7 -32 -7 -13
-13 -26 -14 -30 -1 -5 -3 -11 -4 -15 -1 -5 -2 -11 -1 -15 0 -5 -3 -8 -7 -8 -9
0 -12 -15 -13 -64 -1 -20 7 -35 22 -47 22 -17 54 -19 447 -19 233 0 421 3 419
8 -3 4 10 7 27 8 19 0 43 10 56 22 13 12 35 22 50 22 39 0 112 41 135 75 11
17 92 209 180 428 88 218 165 397 170 397 6 0 12 -15 13 -32 2 -43 10 -110 21
-178 5 -30 7 -58 4 -62 -2 -5 -1 -8 4 -8 4 0 9 -17 11 -37 3 -44 9 -88 16
-123 3 -14 7 -37 8 -52 1 -16 6 -28 11 -28 4 0 6 -4 3 -8 -12 -19 45 -53 93
-56 26 -2 52 -6 58 -9 6 -4 13 -3 17 1 11 10 30 9 39 -3 4 -7 10 -7 15 0 10
15 32 17 46 5 7 -5 16 -6 20 -2 11 10 30 9 39 -3 4 -7 10 -7 15 0 10 15 32 17
46 5 7 -5 16 -7 20 -3 12 12 36 12 36 0 0 -8 3 -7 9 1 4 8 12 14 16 14 4 0 12
-6 16 -14 5 -7 9 -8 9 -2 0 14 30 14 30 0 0 -7 3 -7 8 -1 11 15 32 17 32 3 0
-10 2 -10 9 0 4 8 12 14 16 14 4 0 12 -6 16 -14 6 -8 12 -9 17 -3 10 15 32 17
46 5 7 -5 16 -7 19 -4 4 4 17 8 30 9 13 2 63 22 110 45 85 41 91 46 408 371
177 181 324 327 327 324 3 -2 -3 -16 -12 -30 -9 -14 -14 -25 -11 -25 3 0 -2
-15 -12 -32 -9 -18 -16 -37 -15 -42 2 -4 -2 -14 -8 -20 -5 -7 -7 -16 -3 -19 3
-4 2 -7 -4 -7 -10 0 -28 -46 -25 -62 1 -5 -2 -8 -8 -8 -5 0 -10 -5 -10 -11 0
-10 -78 -214 -100 -264 -16 -33 -33 -79 -36 -94 -1 -8 -8 -17 -14 -21 -7 -4
-11 -10 -10 -14 4 -15 -12 -66 -21 -66 -5 0 -8 -3 -7 -7 2 -5 -2 -21 -9 -38
-6 -16 -15 -39 -19 -50 -4 -11 -8 -24 -8 -28 -1 -4 -7 -12 -15 -16 -7 -5 -11
-13 -8 -18 3 -5 0 -21 -8 -36 -7 -14 -11 -28 -7 -31 3 -3 -1 -6 -8 -6 -7 0
-10 -3 -7 -6 3 -4 2 -14 -3 -24 -14 -27 -29 -101 -19 -94 5 3 9 -1 9 -9 0 -33
45 -37 462 -37 429 0 463 3 510 44 26 22 54 66 50 79 -1 4 2 7 7 7 5 0 12 12
15 26 4 14 16 47 27 73 12 25 25 55 30 66 12 30 237 588 271 675 16 41 33 79
38 85 4 5 8 13 9 18 0 13 174 452 211 532 5 11 46 112 91 225 44 113 86 214
92 225 6 11 12 25 13 30 2 11 57 150 79 200 7 17 21 51 31 77 11 27 23 48 27
48 5 0 6 4 2 9 -3 5 6 34 20 65 14 30 25 57 25 60 0 2 9 25 20 50 11 26 20 48
20 51 1 4 75 187 113 275 5 14 11 30 13 35 2 6 37 93 79 195 74 181 86 212 87
238 1 6 5 12 10 12 5 0 8 21 6 48 -3 44 -6 48 -38 58 -24 8 -162 11 -455 10
l-420 -1 -49 -25 c-26 -13 -54 -34 -62 -45 -8 -10 -14 -16 -14 -13 0 4 -11 -4
-25 -18 -14 -14 -25 -29 -25 -34 0 -6 -7 -10 -16 -10 -8 0 -13 -4 -9 -9 3 -6
-3 -14 -12 -20 -10 -6 -14 -11 -10 -11 5 0 -9 -15 -32 -34 -22 -18 -37 -36
-34 -40 4 -3 1 -6 -6 -6 -7 0 -10 -4 -6 -9 3 -5 -4 -12 -15 -16 -11 -3 -20
-13 -20 -21 0 -8 -3 -13 -7 -12 -5 2 -9 0 -10 -4 -2 -5 -21 -26 -43 -48 -22
-22 -37 -40 -32 -40 4 -1 -4 -7 -18 -15 -14 -8 -21 -14 -16 -15 5 0 -3 -9 -18
-21 -14 -11 -24 -24 -22 -27 2 -4 -2 -13 -10 -20 -8 -7 -14 -10 -14 -7 0 4
-12 -8 -27 -27 -15 -18 -39 -45 -53 -59 -14 -14 -34 -37 -44 -52 -11 -14 -23
-24 -28 -21 -4 3 -8 0 -8 -7 0 -15 -57 -79 -64 -72 -3 4 -6 -1 -6 -10 0 -9 -6
-20 -14 -24 -8 -4 -29 -27 -49 -50 -19 -23 -37 -39 -41 -36 -3 4 -6 0 -6 -8 0
-8 -8 -22 -17 -30 -10 -9 -43 -44 -73 -78 -30 -34 -76 -84 -103 -111 -26 -28
-45 -50 -43 -50 3 0 -22 -27 -54 -60 -32 -33 -57 -60 -54 -60 3 0 -20 -25 -50
-56 -31 -30 -56 -59 -56 -63 0 -4 -13 -20 -30 -34 -16 -15 -30 -32 -30 -38 0
-5 -4 -8 -9 -4 -5 3 -12 -4 -16 -15 -4 -11 -11 -18 -16 -15 -5 4 -9 1 -9 -5 0
-10 -17 -30 -112 -131 -27 -28 -48 -55 -48 -60 0 -4 -9 -13 -20 -19 -11 -6
-20 -9 -20 -8 0 53 -172 1564 -180 1578 -6 11 -28 29 -50 40 -27 14 -38 25
-34 35 4 8 1 15 -7 15 -7 0 -10 3 -7 6 8 7 -24 40 -43 43 -38 7 -799 7 -810 0z"/>
<path d="M7020 7181 c0 -3 -15 -6 -33 -7 -30 -1 -54 -4 -137 -20 -52 -9 -65
-12 -67 -14 -2 -2 -7 -4 -13 -5 -5 -1 -12 -4 -15 -5 -3 -1 -8 -3 -12 -4 -21
-5 -62 -20 -98 -37 -23 -9 -47 -19 -55 -21 -8 -2 -23 -11 -32 -21 -9 -11 -22
-16 -27 -12 -6 3 -11 -1 -11 -9 0 -10 -6 -13 -17 -9 -11 4 -14 3 -9 -5 6 -11
-5 -17 -26 -13 -5 0 -8 -6 -8 -14 0 -8 -4 -15 -10 -15 -5 0 -35 -25 -66 -55
-32 -30 -54 -55 -51 -55 4 0 -9 -17 -28 -37 -61 -66 -71 -78 -74 -88 -2 -5
-21 -35 -42 -66 -20 -31 -60 -98 -88 -150 -55 -103 -296 -682 -330 -794 -109
-349 52 -640 374 -681 33 -4 373 -8 755 -8 382 -1 701 -5 708 -9 6 -5 12 -15
12 -22 0 -28 -162 -420 -181 -440 -19 -19 -35 -20 -589 -23 l-570 -2 2 30 c1
16 5 30 9 30 4 0 9 10 12 23 3 12 13 42 22 66 21 57 14 87 -22 94 -16 3 -216
6 -446 7 -457 0 -461 0 -491 -59 -23 -44 -112 -271 -130 -331 -36 -118 -39
-239 -10 -360 3 -14 6 -31 6 -37 1 -7 5 -13 10 -13 4 0 7 -3 6 -7 -2 -9 32
-81 47 -101 6 -7 20 -24 33 -37 12 -13 22 -30 22 -36 0 -7 3 -10 6 -6 3 3 17
-4 30 -16 41 -38 52 -46 58 -40 3 4 6 1 6 -5 0 -7 7 -12 15 -12 9 0 26 -6 38
-14 21 -13 82 -29 122 -31 11 0 25 -4 32 -8 14 -9 1873 -3 1933 6 85 14 230
50 230 58 0 5 6 6 14 3 8 -3 17 0 21 5 3 6 11 9 16 6 5 -4 9 -1 9 5 0 6 5 8
10 5 6 -3 10 -1 10 4 0 6 3 10 8 9 11 -4 102 44 102 54 0 4 5 8 11 8 12 0 81
51 112 82 10 10 23 18 29 18 6 0 9 3 5 6 -3 3 12 23 34 45 21 21 37 39 34 39
-3 0 6 12 20 28 14 15 36 43 47 62 12 19 24 37 27 40 4 3 13 19 21 35 8 17 19
33 25 37 5 4 6 8 2 8 -5 0 -1 7 7 16 9 8 14 20 11 25 -4 5 -2 9 3 9 10 0 38
60 34 73 -1 4 2 7 8 7 5 0 10 7 10 15 0 8 5 15 11 15 5 0 8 4 5 8 -3 5 4 25
14 45 11 21 18 37 15 37 -3 0 2 11 11 24 8 14 15 26 13 28 -1 2 9 28 22 58 13
30 23 58 21 63 -1 4 3 7 10 7 6 0 9 3 5 6 -3 4 3 24 14 45 11 22 16 39 12 39
-5 0 -2 4 5 9 7 4 14 18 15 29 1 12 5 22 10 22 4 0 6 4 2 9 -3 5 -1 12 5 16 5
3 10 15 10 26 0 10 5 19 10 19 6 0 10 9 10 19 0 11 5 23 10 26 6 4 8 10 5 15
-3 5 0 12 6 15 5 4 8 14 5 22 -3 8 -2 12 2 9 7 -4 50 116 56 156 1 7 4 18 7
23 4 6 6 25 5 43 0 17 2 32 6 32 11 0 0 187 -13 212 -7 12 -11 23 -10 23 1 0
-2 13 -8 28 -6 16 -11 32 -11 36 0 4 -13 26 -29 48 -16 23 -27 44 -24 47 4 3
-1 6 -10 6 -9 0 -17 6 -17 14 0 8 -9 18 -20 21 -11 3 -20 13 -20 21 0 8 -4 12
-10 9 -5 -3 -10 -1 -10 4 0 6 -7 11 -15 11 -8 0 -15 5 -15 10 0 6 -9 10 -21
10 -11 0 -18 4 -15 9 5 7 -8 12 -72 27 -8 1 -21 6 -30 10 -26 11 -41 13 -137
20 -49 3 -92 8 -94 10 -2 2 -10 -1 -18 -7 -10 -9 -13 -8 -13 2 0 9 -3 10 -11
2 -6 -6 -25 -7 -49 -3 -24 4 -43 3 -49 -3 -8 -8 -11 -7 -11 1 0 9 -5 10 -19 2
-14 -7 -22 -7 -26 0 -5 8 -11 7 -21 -1 -11 -9 -14 -8 -14 2 0 9 -3 10 -11 2
-6 -6 -25 -7 -50 -3 -22 4 -42 3 -45 -1 -3 -5 -13 -5 -23 0 -10 6 -23 6 -31 1
-8 -5 -19 -6 -25 -2 -17 11 -35 11 -35 -1 0 -8 -3 -8 -12 1 -6 6 -18 8 -27 3
-14 -6 -36 -7 -43 -1 -10 7 -38 6 -38 -2 0 -7 -4 -7 -13 0 -8 7 -18 7 -27 2
-8 -5 -21 -5 -30 0 -9 5 -22 5 -29 0 -8 -4 -26 -4 -41 0 -15 4 -33 4 -41 0 -7
-5 -18 -6 -24 -2 -17 11 -35 11 -35 0 0 -7 -4 -7 -13 0 -8 7 -18 7 -27 2 -8
-5 -21 -5 -30 0 -9 5 -22 5 -29 0 -8 -4 -26 -4 -41 0 -15 4 -33 4 -41 0 -7 -5
-18 -6 -24 -2 -17 11 -35 11 -35 0 0 -7 -5 -7 -13 1 -8 6 -17 8 -20 5 -5 -6
-73 -9 -87 -4 -23 7 -40 6 -40 -2 0 -7 -4 -7 -13 0 -7 6 -19 7 -26 3 -7 -5
-28 -5 -47 -1 -20 5 -37 4 -40 -2 -4 -5 -11 -5 -18 1 -7 6 -16 8 -19 4 -8 -7
-9 -3 -11 40 -1 15 2 27 7 27 5 0 7 7 3 15 -3 8 -2 15 3 15 9 0 24 45 19 55
-2 2 6 11 17 20 11 9 14 13 7 10 -11 -6 -11 -3 -3 11 9 16 28 59 36 84 9 28
27 70 40 93 8 16 13 33 9 38 -3 5 0 9 7 9 7 0 9 3 6 7 -4 3 -2 12 4 20 9 11
112 13 555 13 627 0 579 9 537 -100 -39 -103 -44 -122 -32 -137 9 -10 94 -13
429 -13 415 0 417 0 445 22 21 16 43 22 85 23 54 1 93 16 126 49 5 6 19 35 29
64 10 28 22 52 27 52 4 0 5 7 2 15 -4 8 -1 15 6 15 6 0 8 5 5 10 -3 6 1 17 9
25 8 9 13 22 10 30 -4 8 -1 15 5 15 6 0 11 8 11 18 0 10 3 22 8 26 4 4 7 11 8
14 0 4 8 32 18 62 19 61 27 101 29 143 0 15 4 27 9 27 5 0 4 9 -2 19 -7 14 -7
22 0 26 8 5 8 11 0 20 -8 9 -8 15 0 20 6 3 7 12 3 18 -8 13 -11 25 -15 72 -2
17 -9 36 -16 44 -7 7 -11 20 -8 27 3 8 1 14 -5 14 -6 0 -8 4 -5 9 3 5 -1 14
-9 21 -8 7 -15 17 -15 22 0 15 -67 98 -74 91 -3 -3 -6 1 -6 9 0 9 -16 23 -35
32 -19 9 -35 22 -35 28 0 6 -3 9 -6 5 -4 -3 -13 1 -21 9 -8 8 -19 12 -24 9 -5
-4 -9 -1 -9 5 0 6 -3 9 -7 7 -5 -3 -19 0 -33 6 -14 5 -29 11 -35 13 -5 1 -23
5 -40 10 -48 12 -1808 14 -1822 2 -8 -6 -13 -7 -13 -1 0 5 -7 10 -15 10 -8 0
-15 -3 -15 -6z"/>
</g>
</svg>
