<?xml version="1.0" encoding="UTF-8" standalone="no"?>
<!-- Created with Inkscape (http://www.inkscape.org/) -->

<svg
   xmlns:dc="http://purl.org/dc/elements/1.1/"
   xmlns:cc="http://creativecommons.org/ns#"
   xmlns:rdf="http://www.w3.org/1999/02/22-rdf-syntax-ns#"
   xmlns:svg="http://www.w3.org/2000/svg"
   xmlns="http://www.w3.org/2000/svg"
   xmlns:sodipodi="http://sodipodi.sourceforge.net/DTD/sodipodi-0.dtd"
   xmlns:inkscape="http://www.inkscape.org/namespaces/inkscape"
   width="95.25mm"
   height="72.045334mm"
   viewBox="0 0 95.25 72.045334"
   version="1.1"
   id="svg1507"
   inkscape:version="0.92.4 (5da689c313, 2019-01-14)"
   sodipodi:docname="tomee.svg">
  <defs
     id="defs1501" />
  <sodipodi:namedview
     id="base"
     pagecolor="#ffffff"
     bordercolor="#666666"
     borderopacity="1.0"
     inkscape:pageopacity="0.0"
     inkscape:pageshadow="2"
     inkscape:zoom="0.7"
     inkscape:cx="380.76784"
     inkscape:cy="170.96651"
     inkscape:document-units="mm"
     inkscape:current-layer="layer1"
     showgrid="false"
     inkscape:window-width="1600"
     inkscape:window-height="877"
     inkscape:window-x="-8"
     inkscape:window-y="-8"
     inkscape:window-maximized="1"
     fit-margin-top="0"
     fit-margin-left="0"
     fit-margin-right="0"
     fit-margin-bottom="0">
    <inkscape:grid
       type="xygrid"
       id="grid838"
       originx="145.84651"
       originy="-122.07739" />
  </sodipodi:namedview>
  <metadata
     id="metadata1504">
    <rdf:RDF>
      <cc:Work
         rdf:about="">
        <dc:format>image/svg+xml</dc:format>
        <dc:type
           rdf:resource="http://purl.org/dc/dcmitype/StillImage" />
        <dc:title></dc:title>
      </cc:Work>
    </rdf:RDF>
  </metadata>
  <g
     inkscape:label="Layer 1"
     inkscape:groupmode="layer"
     id="layer1"
     transform="translate(145.84651,-102.87728)">
    <path
       style="fill:#00002f;fill-opacity:1;stroke-width:0.12632626"
       d="m -99.635041,174.14259 c -0.174424,-0.87752 -0.229178,-0.91339 -0.442839,-0.29015 -0.20006,0.58354 -0.36896,0.55153 -0.64979,-0.12313 l -0.25171,-0.60469 -0.41648,0.66322 c -0.22907,0.36476 -0.45925,0.66321 -0.51153,0.66321 -0.0523,0 -0.13341,-0.33058 -0.1803,-0.73461 -0.12783,-1.10141 -0.18682,-1.14481 -0.91819,-0.67549 -0.3424,0.21972 -0.68863,0.39949 -0.7694,0.39949 -0.10023,0 -0.15023,-0.37096 -0.15749,-1.16852 l -0.0106,-1.16852 -0.25173,0.54822 c -0.13846,0.30152 -0.27106,0.52889 -0.29469,0.50527 -0.0236,-0.0236 -0.21933,-0.83182 -0.4349,-1.79599 -0.21558,-0.96416 -0.41462,-1.78971 -0.44233,-1.83454 -0.10062,-0.1628 -0.96091,-3.96522 -0.9089,-4.01724 0.0294,-0.0294 0.36149,0.53272 0.73793,1.24918 0.37644,0.71646 1.03819,1.80516 1.47054,2.41932 0.74031,1.05161 1.14814,2.03408 1.15999,2.79442 0.004,0.2545 0.006,0.25464 0.19069,0.0108 0.18364,-0.24283 0.19765,-0.24129 0.86131,0.0948 0.37105,0.18788 0.74291,0.3416 0.82637,0.3416 0.0834,0 0.24222,0.21317 0.35283,0.47372 l 0.2011,0.47372 0.11879,-0.34739 c 0.08,-0.23395 0.20818,-0.34827 0.392509,-0.35007 0.150536,-0.001 0.671633,-0.14333 1.157987,-0.31526 1.073616,-0.37953 1.024109,-0.37824 1.133255,-0.0295 0.0768,0.24542 0.109685,0.20718 0.240837,-0.28009 0.10938,-0.40639 0.25655,-0.62365 0.525839,-0.77629 0.636164,-0.36059 0.914691,-0.4029 0.980647,-0.14897 0.04779,0.18399 0.06152,0.17539 0.07344,-0.046 0.0081,-0.14975 0.212681,-0.5093 0.454712,-0.79899 0.499641,-0.59803 0.690966,-1.16432 1.163875,-3.44489 0.1837,-0.88586 0.369281,-1.61066 0.41241,-1.61066 0.152971,0 -0.11257,2.14436 -0.419577,3.38823 -0.171387,0.69441 -0.620503,2.04944 -0.99804,3.01118 -0.377532,0.96175 -0.756039,2.0755 -0.841126,2.47501 -0.08508,0.39951 -0.199699,0.72638 -0.254702,0.72638 -0.055,0 -0.172714,-0.34262 -0.261582,-0.76138 l -0.161576,-0.76138 -0.567787,0.84638 c -0.533316,0.79498 -0.578579,0.83163 -0.745458,0.60347 -0.09772,-0.1336 -0.211818,-0.37891 -0.253552,-0.54513 -0.06318,-0.2516 -0.142195,-0.13679 -0.471772,0.68544 -0.217733,0.54322 -0.45868,1.00861 -0.535435,1.03419 -0.08248,0.0275 -0.206614,-0.29086 -0.303527,-0.77842 z m -0.876279,-5.44967 c -0.31266,-0.0259 -1.14592,-0.11298 -1.8517,-0.19353 l -1.28322,-0.14645 -0.78035,-2.1208 -0.78035,-2.1208 -2.42101,-0.0411 c -2.20997,-0.0375 -2.47606,-0.0664 -3.05264,-0.33181 -0.7133,-0.32829 -1.37863,-0.91613 -1.67269,-1.47786 -0.25096,-0.4794 -0.53456,-1.53413 -0.53651,-1.99536 -10e-4,-0.32761 -0.0312,-0.34832 -0.41206,-0.28665 -0.22581,0.0366 -1.03588,0.15409 -1.80015,0.26118 -2.98183,0.41783 -7.062,1.30424 -13.99115,3.03956 -6.49806,1.62736 -10.94749,2.5042 -13.35848,2.63254 -1.15044,0.0612 -1.16351,0.0591 -0.31582,-0.0521 4.13703,-0.54254 6.82576,-1.12306 13.83272,-2.98659 6.93831,-1.84527 10.47286,-2.62278 13.99547,-3.07866 1.06221,-0.13746 1.95755,-0.24994 1.98964,-0.24994 0.0321,0 0.0584,-0.21317 0.0584,-0.47372 l 1.2e-4,-0.47372 -3.12669,0.0848 c -7.88933,0.21387 -23.22983,0.97418 -26.10178,1.29365 -0.26897,0.0299 -0.43951,0.0113 -0.37898,-0.0414 0.11382,-0.0991 1.94467,-0.26216 10.02665,-0.89295 6.8233,-0.53256 11.00283,-0.75932 15.61982,-0.84744 l 4.06098,-0.0775 0.0804,-0.5028 c 0.0442,-0.27653 0.0643,-0.51858 0.0446,-0.53788 -0.0197,-0.0193 -4.75406,-0.1033 -10.52085,-0.18668 -9.99907,-0.14456 -16.04508,-0.0781 -19.32791,0.21234 -0.48636,0.043 -0.85203,0.0428 -0.81261,-4.8e-4 0.1016,-0.11153 4.65493,-0.43038 8.45534,-0.59209 3.93912,-0.16762 16.63133,-0.16714 21.28598,9.5e-4 1.87594,0.0677 3.92243,0.12626 4.54774,0.13018 1.86402,0.0117 0.97245,0.23982 -1.30386,0.33366 -2.21046,0.0911 -2.16337,0.0716 -2.16839,0.89745 l -0.002,0.28433 h 2.77918 c 1.52855,0 2.77918,0.0483 2.77918,0.10741 0,0.14055 -1.89677,0.27157 -3.93156,0.27157 -1.23682,0 -1.60739,0.0372 -1.57022,0.15791 0.0267,0.0868 0.0793,0.30002 0.11678,0.47372 l 0.0681,0.31581 2.31103,-0.0273 c 2.63784,-0.0312 2.62003,0.16514 -0.026,0.28662 -0.86849,0.0399 -1.70751,0.0985 -1.8645,0.13039 l -0.28542,0.0579 0.24319,0.4767 c 0.32471,0.63648 1.27257,1.49286 1.99514,1.80259 1.2283,0.52651 3.17026,0.53012 4.59625,0.009 1.22185,-0.4469 1.5663,-0.58616 1.69482,-0.68519 0.0695,-0.0535 0.46741,-0.32269 0.88429,-0.59813 0.41687,-0.27543 1.00952,-0.71874 1.317,-0.98513 l 0.55905,-0.48434 -0.97273,-0.67245 c -0.535,-0.36985 -0.94662,-0.69856 -0.91471,-0.73047 0.0319,-0.0319 0.36019,-0.0955 0.7295,-0.1413 l 0.67147,-0.0833 -1.13693,-0.41572 -1.13694,-0.41573 -1.74848,-2.22124 c -0.96167,-1.22168 -1.69326,-2.25621 -1.62577,-2.29896 0.0675,-0.0427 0.32742,-0.902 0.5776,-1.90946 l 0.45489,-1.83173 -0.63926,-0.58745 -0.63927,-0.58746 -2.10043,0.55088 c -1.15525,0.30298 -2.1203,0.53102 -2.14456,0.50676 -0.0443,-0.0443 1.47612,-0.89056 2.71749,-1.51267 0.36476,-0.18281 0.66321,-0.35596 0.66321,-0.3848 0,-0.0288 -0.16885,-0.17267 -0.37522,-0.31961 -0.32905,-0.23431 -0.65935,-0.28308 -2.68443,-0.39634 -3.76806,-0.21075 -4.99448,-0.5711 -6.26512,-1.84084 -0.7453,-0.74477 -1.40607,-2.02204 -1.67328,-3.23447 -0.15205,-0.68993 -0.1799,-0.72805 -0.48736,-0.66721 -0.70653,0.13982 -4.81937,0.59598 -4.95769,0.54987 -0.0809,-0.027 0.92811,-0.34865 2.24225,-0.71486 1.31414,-0.36621 2.73043,-0.76651 3.1473,-0.88956 l 0.75796,-0.22372 -1.59472,-0.0968 c -2.09603,-0.12728 -2.37088,-0.313 -0.48966,-0.33087 0.79901,-0.008 1.99279,-0.054 2.65285,-0.10304 l 1.2001,-0.0892 2.42231,0.92222 c 1.33228,0.50722 2.47026,0.92222 2.52886,0.92222 0.0586,0 0.40935,-0.44853 0.77946,-0.99673 l 0.67293,-0.99672 -0.27315,-1.05608 c -0.15022,-0.58084 -0.58861,-1.89742 -0.9742,-2.92573 -0.38558,-1.02831 -0.67424,-1.89647 -0.64147,-1.92923 0.0327,-0.0328 0.9263,1.38841 1.98562,3.15818 l 1.92604,3.21777 -0.086,1.42748 -0.086,1.42749 1.40445,0.52539 c 1.12052,0.41918 1.39138,0.48303 1.33981,0.31582 -0.8636,-2.80027 -1.09058,-3.60268 -1.05807,-3.74051 0.0216,-0.0914 0.74978,0.7883 1.61828,1.9549 l 1.57908,2.12108 1.07377,0.45977 1.07377,0.45977 -0.73515,-0.0712 c -0.40433,-0.0391 -0.70539,-0.0231 -0.66901,0.0358 0.0364,0.0589 0.72249,0.35272 1.52469,0.65304 0.8022,0.30032 1.45855,0.58039 1.45855,0.6224 0,0.042 -0.74929,0.0341 -1.66508,-0.0175 -0.9158,-0.0516 -1.67448,-0.0805 -1.68598,-0.0641 -0.0115,0.0164 -0.28254,0.49974 -0.60233,1.07412 l -0.58143,1.04432 -0.19637,3.17666 c -0.108,1.74717 -0.18197,3.18899 -0.16437,3.20407 0.0176,0.0151 1.11099,0.43518 2.42976,0.93358 l 2.397749,0.90618 3.379044,-0.73037 3.379044,-0.73036 -0.06775,-3.53992 -0.06775,-3.53992 -0.451881,-0.96192 -0.451882,-0.96193 -0.949555,-0.0803 c -0.522253,-0.0441 -1.43554,-0.0803 -2.029531,-0.0803 -0.624633,0 -1.029375,-0.0466 -0.959968,-0.11058 0.06601,-0.0608 0.833209,-0.34589 1.704901,-0.6335 l 1.584888,-0.52293 1.699592,-2.21602 c 0.934777,-1.21881 1.714311,-2.14172 1.732297,-2.05093 0.018,0.0908 -0.159436,0.8824 -0.394267,1.7591 l -0.426963,1.594 1.00939,-0.33074 1.009384,-0.33074 -0.08557,-1.27822 -0.08557,-1.27821 1.918919,-2.70106 c 1.055407,-1.48559 2.059267,-2.88955 2.230802,-3.11992 0.59368,-0.7973 0.416316,-0.30555 -0.361151,1.00132 -0.924928,1.55472 -1.848772,3.43464 -1.948655,3.96528 -0.06412,0.34063 0.02287,0.47215 0.859612,1.2996 l 0.930949,0.92061 3.379015,-1.15734 3.379016,-1.15734 2.613729,0.18155 c 1.437555,0.0999 2.528461,0.21607 2.424242,0.25825 -0.104219,0.0422 -1.070613,0.15228 -2.147548,0.24467 l -1.958056,0.16796 3.215439,0.88369 c 1.768493,0.48602 3.120995,0.90187 3.005561,0.9241 -0.115434,0.0223 -1.221297,-0.0796 -2.457482,-0.22629 -1.23618,-0.1467 -2.380693,-0.27831 -2.543367,-0.29248 -0.267546,-0.0233 -0.325413,0.0761 -0.606566,1.04222 -0.723395,2.48571 -2.172538,3.87404 -4.551394,4.36038 -0.474426,0.097 -1.931653,0.23417 -3.238281,0.30482 -2.338673,0.12647 -2.382035,0.13398 -2.782361,0.48213 l -0.406666,0.35366 2.247584,1.31378 c 1.236175,0.72259 2.223401,1.33798 2.193847,1.36753 -0.02955,0.0296 -1.226731,-0.32005 -2.660391,-0.7769 -1.433659,-0.45685 -2.678653,-0.83064 -2.766657,-0.83064 -0.088,0 -0.446983,0.27003 -0.797734,0.60005 l -0.637735,0.60005 0.316881,2.04651 c 0.281244,1.81632 0.34508,2.05077 0.567544,2.08438 0.186909,0.0283 -0.280804,0.48765 -1.839117,1.80645 -2.028209,1.71647 -2.124535,1.7802 -3.269927,2.16374 l -1.180161,0.39517 0.82112,0.11158 0.82112,0.11158 -1.172015,0.67948 c -0.644605,0.37372 -1.199525,0.72401 -1.233157,0.77843 -0.08894,0.1439 0.897202,0.91768 2.060933,1.6171 1.19838,0.72025 3.035617,1.35776 4.468717,1.55063 1.931367,0.25992 3.779404,-0.28141 4.84318,-1.41867 0.600818,-0.64232 0.921834,-1.19472 0.777925,-1.33863 -0.04717,-0.0472 -0.803688,-0.131 -1.681172,-0.18631 -0.877488,-0.0553 -1.618123,-0.12326 -1.645864,-0.15099 -0.115295,-0.1153 1.942029,-0.2245 2.733007,-0.14506 0.823646,0.0827 0.85914,0.0748 0.935203,-0.20931 0.0435,-0.16241 0.07984,-0.35763 0.08078,-0.43382 9.55e-4,-0.0911 -0.67882,-0.16763 -1.988122,-0.2236 -2.166235,-0.0926 -3.415746,-0.30169 -1.926267,-0.32231 0.451618,-0.006 1.543073,-0.0482 2.425455,-0.0932 l 1.604334,-0.0818 0.04741,-0.51772 0.04741,-0.51771 0.02206,0.51213 0.02206,0.51212 7.674317,0.009 c 8.016499,0.01 13.881707,0.20947 19.801644,0.67451 2.420743,0.19016 2.675364,0.2252 1.263261,0.17387 -0.972711,-0.0354 -3.189733,-0.1158 -4.926724,-0.17876 -1.736986,-0.0629 -7.805384,-0.11661 -13.485329,-0.11926 l -10.327169,-0.005 v 0.41827 0.41826 l 2.052803,0.14971 c 4.139866,0.30191 8.116104,0.9297 16.931387,2.67325 5.776832,1.14259 9.666809,1.80224 11.965743,2.02915 0.868493,0.0857 1.634152,0.20624 1.701458,0.26781 0.07248,0.0663 -0.03051,0.0863 -0.252654,0.0491 -0.206265,-0.0346 -1.000346,-0.12244 -1.764621,-0.1953 -3.028096,-0.28869 -6.351832,-0.81865 -15.833002,-2.52451 -7.332928,-1.31935 -14.58626,-2.24382 -14.806676,-1.88718 -0.05173,0.0837 -0.129987,0.37694 -0.173912,0.65165 -0.171846,1.07463 -0.930276,2.02463 -1.990056,2.49271 -0.324749,0.14343 -1.234298,0.40542 -2.021223,0.5822 -0.786925,0.17678 -1.729848,0.40763 -2.095391,0.51301 -0.497941,0.14355 -0.944313,0.16972 -1.779866,0.10436 l -1.115246,-0.0872 -0.286147,1.5622 c -0.533946,2.91509 -0.473181,2.73865 -0.995873,2.89141 -0.473906,0.1385 -3.92189,0.26142 -4.948534,0.17642 z m 4.321345,-0.62523 c 0.701752,-0.21196 0.72307,-0.23172 0.79666,-0.73858 0.04159,-0.28644 0.02416,-0.74819 -0.03872,-1.02611 l -0.114311,-0.5053 -0.09798,0.609 c -0.210844,1.31048 -0.937481,1.61478 -3.855892,1.61478 -1.379112,0 -1.733132,-0.0412 -2.225862,-0.25919 -0.32226,-0.14255 -0.65408,-0.25919 -0.73735,-0.25919 -0.22085,0 -0.65826,-0.50364 -0.8785,-1.01151 l -0.19135,-0.44124 0.01,0.50531 c 0.0226,1.14383 0.086,1.23464 0.99098,1.4211 1.65659,0.34132 2.24524,0.39422 3.915847,0.3519 1.139472,-0.0289 1.944683,-0.11547 2.426453,-0.26097 z m -6.701205,-6.24713 c 0.0297,-0.089 0.23852,0.004 0.53324,0.23869 0.48109,0.38231 0.79442,0.38572 1.02592,0.0112 0.1568,-0.25372 0.44166,-0.11399 0.66832,0.32782 l 0.23265,0.45347 0.39815,-0.45347 c 0.218976,-0.24941 0.427212,-0.45347 0.462744,-0.45347 0.03552,0 0.197991,0.26247 0.361027,0.58327 l 0.296422,0.58327 0.388318,-0.52803 0.388318,-0.52803 0.342105,0.44852 0.342105,0.44853 0.787202,-0.44023 0.787196,-0.44022 0.163199,0.34702 c 0.08976,0.19086 0.191478,0.75795 0.226041,1.26019 0.03457,0.50223 0.107866,0.88532 0.162907,0.85131 0.144559,-0.0894 0.498676,-1.72746 0.498676,-2.30682 v -0.49247 l -0.979028,-0.22472 c -1.488939,-0.34177 -4.252892,-0.40111 -6.066382,-0.13024 -0.81488,0.12171 -1.58109,0.27303 -1.70268,0.33626 -0.29434,0.15304 -0.2968,1.20932 -0.005,2.35397 l 0.21557,0.84709 0.21235,-1.47327 c 0.1168,-0.81029 0.2343,-1.53911 0.26113,-1.61959 z m -6.4676,-16.61165 c 0.61224,-0.3166 1.39072,-1.06974 1.85693,-1.79647 0.23186,-0.36143 0.42156,-0.68408 0.42156,-0.71699 0,-0.0329 -1.16613,-0.447 -2.59141,-0.9202 -2.03128,-0.67439 -2.63883,-0.83091 -2.81076,-0.72411 -0.32306,0.20067 -0.56291,0.76847 -0.65907,1.56028 l -0.085,0.70021 -0.15858,-0.37898 c -0.24657,-0.58928 -0.38656,-1.65741 -0.27033,-2.06268 l 0.10527,-0.36705 -1.54614,-0.52212 c -0.85038,-0.28717 -1.63602,-0.52212 -1.74587,-0.52212 -0.13847,0 -0.24635,0.20834 -0.35176,0.67938 -0.30156,1.34754 0.11671,2.36572 1.48592,3.6171 0.78543,0.71784 1.26117,0.98938 2.44681,1.39655 1.44748,0.49711 3.00756,0.51997 3.90247,0.0572 z m 25.032677,0.007 c 1.551743,-0.51044 1.841319,-0.67261 2.781984,-1.558 1.362901,-1.28281 1.75467,-2.36448 1.347999,-3.72182 -0.140481,-0.46888 -0.173397,-0.49482 -0.536887,-0.4231 -0.212978,0.042 -0.913063,0.28402 -1.555749,0.53776 l -1.16852,0.46134 v 0.67054 c 0,0.64748 -0.455218,2.06543 -0.663212,2.06582 -0.05211,9e-5 -0.09475,-0.27202 -0.09475,-0.60469 0,-0.798 -0.462004,-1.74949 -0.82112,-1.69108 -0.338696,0.0551 -5.163298,1.54734 -5.23875,1.62034 -0.03266,0.0316 0.07597,0.31256 0.241381,0.62437 0.396053,0.74657 1.624083,1.87158 2.306421,2.11294 0.862176,0.30497 2.309171,0.26481 3.401198,-0.0944 z m -4.247384,11.43856 c -0.654231,-0.11805 0.551105,-0.19677 8.211209,-0.53628 8.177519,-0.36245 19.346492,-0.45231 23.420742,-0.18842 1.695223,0.1098 3.116392,0.23382 3.15816,0.2756 0.04178,0.0418 -0.549377,0.0286 -1.313652,-0.0293 -2.456928,-0.18617 -10.930766,-0.0791 -16.73823,0.21147 -5.549243,0.27767 -15.775053,0.44076 -16.738229,0.26697 z m -10.464379,-9.74239 c -0.347482,-3.25649 -0.344984,-3.87483 0.02602,-6.44264 l 0.355932,-2.46335 -0.05166,4.16876 c -0.02841,2.29282 -0.09464,4.48142 -0.147171,4.86356 l -0.09551,0.69479 z m -0.637912,-10.34275 c -0.196916,-0.56984 -0.211049,-0.75729 -0.08805,-1.16784 0.132818,-0.4433 0.110621,-0.57083 -0.237322,-1.36359 -0.21111,-0.48101 -0.38385,-0.99294 -0.38385,-1.13762 0,-0.14469 -0.0567,-0.24885 -0.12612,-0.23148 -0.0694,0.0174 -0.26384,-0.25265 -0.43217,-0.60005 -0.28944,-0.59735 -0.30677,-0.61106 -0.31909,-0.25266 -0.0128,0.37081 -0.0202,0.3661 -0.34549,-0.21826 -0.30011,-0.53917 -0.34857,-0.57603 -0.49821,-0.37898 -0.1457,0.19184 -0.16634,0.15708 -0.17044,-0.28704 -0.003,-0.29769 -0.12473,-0.70364 -0.29689,-0.98804 -0.261,-0.43115 -0.31035,-0.46089 -0.46186,-0.27833 -0.0933,0.11242 -0.34141,0.32672 -0.55138,0.47623 -0.35678,0.25404 -0.37567,0.25598 -0.28878,0.0296 0.11495,-0.29954 0.10588,-0.2902 -0.59167,0.60966 -0.31266,0.40332 -0.59649,0.68756 -0.63076,0.63163 -0.0342,-0.0559 -0.10458,-0.44277 -0.15628,-0.85965 -0.0517,-0.41688 -0.16548,-0.87165 -0.25287,-1.01061 -0.0874,-0.13896 -0.1958,-0.43011 -0.24093,-0.64701 -0.0776,-0.3728 -0.14034,-0.41001 -1.14933,-0.68116 -1.04187,-0.27999 -1.29318,-0.43777 -0.84623,-0.53131 0.12159,-0.0254 -0.39003,-0.12327 -1.13693,-0.2174 -0.74691,-0.0941 -1.35801,-0.20957 -1.35801,-0.25652 0,-0.10121 2.26254,-0.43985 4.73723,-0.70905 4.24491,-0.46176 12.827506,-0.31279 16.359249,0.28394 0.429708,0.0726 0.414616,0.084 -0.536457,0.406 -0.538229,0.1822 -0.964581,0.37193 -0.947445,0.42162 0.01714,0.0497 -0.27899,0.24864 -0.658055,0.44214 -0.602308,0.30745 -0.711998,0.42348 -0.869997,0.92028 -0.216816,0.68173 -0.256493,0.73566 -0.386498,0.5253 -0.06041,-0.0977 -0.165409,0.22996 -0.264271,0.82478 -0.09022,0.54282 -0.18836,1.03098 -0.218082,1.08479 -0.02975,0.0538 -0.511925,-0.28407 -1.071568,-0.75086 -0.736295,-0.61412 -0.993218,-0.77209 -0.929569,-0.57156 0.108664,0.34238 -0.0019,0.34736 -0.532169,0.024 -0.227488,-0.1387 -0.465255,-0.25218 -0.528374,-0.25218 -0.258986,0 -0.244423,0.53308 0.05017,1.83646 0.171067,0.75686 0.28897,1.39819 0.262008,1.42515 -0.02698,0.027 -0.286463,-0.42324 -0.576673,-1.00043 l -0.527653,-1.04945 -0.266047,0.36522 -0.266047,0.36523 -0.07071,-0.29953 c -0.13267,-0.562 -0.942675,1.25706 -1.434447,3.22141 -0.243449,0.97244 -0.461702,1.93861 -0.485002,2.14705 -0.03901,0.34884 -0.06101,0.325 -0.276933,-0.29982 z m -24.079572,-2.53193 c -3.08942,-0.40121 -3.70785,-0.51769 -4.35826,-0.82091 -0.64516,-0.30078 -0.72036,-0.36885 -0.5053,-0.45744 0.21345,-0.0879 0.19287,-0.10545 -0.13265,-0.11295 -0.36118,-0.008 -0.68847,-0.19908 -0.68847,-0.40127 0,-0.0491 0.29844,-0.12931 0.66321,-0.17832 1.08291,-0.14552 1.08909,-0.27372 0.0179,-0.37205 -1.2024,-0.11037 -1.47657,-0.26356 -2.65212,-1.48181 -1.43892,-1.49119 -2.80122,-3.70785 -3.2702,-5.32108 -0.28639,-0.98516 -0.19857,-1.32218 0.16362,-0.62789 0.41705,0.79944 2.03833,2.68827 3.06864,3.57503 1.67325,1.44012 3.32956,2.31868 6.304,3.34383 2.56216,0.88305 3.83613,1.54058 4.87128,2.5142 1.06644,1.00304 1.38148,0.97222 -3.48169,0.34066 z m 49.147715,-0.33659 c 1.339926,-1.39219 3.424211,-2.62443 7.369023,-4.35662 4.095756,-1.79846 6.521812,-3.08465 8.393196,-4.44972 2.087776,-1.20695 -3.121367,3.99413 -3.865927,4.62123 -0.467251,0.38047 -1.361163,0.95135 -1.986479,1.26862 -1.149709,0.58333 -1.368985,0.75287 -0.508975,0.39354 0.801009,-0.33469 0.745252,-0.1416 -0.130055,0.45036 -2.003386,1.35488 -1.627324,1.22665 -5.581356,1.90304 -1.998186,0.34181 -3.743699,0.62156 -3.878919,0.62167 -0.208246,1.3e-4 -0.17926,-0.069 0.189492,-0.45212 z m 14.372042,-9.04122 c -50.965827,47.2087 -25.482913,23.60435 0,0 z"
       id="path2075"
       inkscape:connector-curvature="0"
       sodipodi:nodetypes="cscccsccssccscccsccccsccccscscccssssccsccscccccccccccccccccsccscsccsccsscccsccccccccssscccscccccccccccsccccccscccsscsccccccccccccccsccccccccccccsccccccscccccccccccccccscccscccccccsccsscccccccccccssccccsssccscscccccccccscccccscsccccccsccscccssscccscccccccsccccccccscsccccccccccccsscccccccccccscccccccccccsscscccccscsccccccccscsccscccscccscccscscccccsscccccccccccccccccsscccccscscsccsccscccsscccccscsccscccscccccccsccscccc" />
    <path
       style="fill:#ff6600;fill-opacity:1;stroke-width:0.12632626"
       d="m -138.26693,118.01178 v -10.16927 h -3.78979 -3.78979 v -2.46336 -2.46336 h 11.55885 11.55885 v 2.46336 2.46336 h -4.86356 -4.86356 l 0.016,4.89514 c 0.0104,3.17731 0.0523,4.61554 0.11946,4.09839 0.36359,-2.80054 1.808,-5.30864 3.88489,-6.74578 0.84763,-0.58653 2.26037,-1.18863 3.35393,-1.42944 1.42807,-0.31447 3.81571,-0.21103 5.15305,0.22326 3.08083,1.00044 5.16936,3.2538 6.06611,6.54484 0.24947,0.91552 0.29027,1.36276 0.28754,3.15132 -0.003,1.76438 -0.0473,2.24794 -0.29031,3.14972 -0.73145,2.71403 -2.2534,4.77192 -4.2978,5.81124 l -0.55044,0.27982 -0.816,-0.38978 c -1.61168,-0.76985 -3.4459,-1.10609 -6.61014,-1.21174 -1.14641,-0.0383 -2.43295,-0.0996 -2.85896,-0.13626 -0.76996,-0.0663 -0.77781,-0.071 -1.31169,-0.78458 -1.04311,-1.39429 -1.7672,-3.23406 -2.01123,-5.11015 -0.0728,-0.55944 -0.10703,0.11978 -0.11841,2.34794 l -0.016,3.13509 -0.28424,-0.0861 c -0.82072,-0.24856 -1.69442,-1.14227 -2.33242,-2.38587 l -0.25434,-0.49575 -0.13455,0.43314 c -0.23072,0.74277 -0.30151,1.24187 -0.19953,1.40687 0.054,0.0873 0.10931,0.24505 0.12299,0.35048 0.0136,0.10544 0.3148,0.86253 0.66919,1.68241 0.35439,0.81988 0.64433,1.51625 0.64433,1.5475 0,0.0312 -0.90955,0.0568 -2.02122,0.0568 h -2.02121 z m 16.62467,5.63334 c 0.70648,-0.32085 1.41181,-1.05672 1.7766,-1.8535 0.86651,-1.89272 0.88561,-4.84295 0.0421,-6.49648 -0.83586,-1.63842 -2.88216,-2.45985 -4.44221,-1.78319 -2.19241,0.95095 -3.16026,4.79327 -1.99163,7.90672 0.3528,0.93994 1.32414,1.95907 2.1425,2.2479 0.78068,0.27554 1.83895,0.26636 2.4727,-0.0214 z m 63.30215,2.25979 c 1.095646,-1.87769 1.300941,-2.30891 1.172759,-2.46337 -0.136628,-0.16462 0.250668,-0.18723 3.207729,-0.18723 h 3.363112 v 2.46337 2.46336 h -4.535876 -4.535876 z m -20.806132,1.89951 c -0.828631,-0.17787 -5.871524,-0.99969 -6.66371,-1.08595 l -0.789541,-0.086 v -11.17605 c 0,-12.59391 -0.05676,-11.84951 0.937862,-12.30125 0.482653,-0.21921 0.992272,-0.23403 8.139652,-0.23663 l 7.624767,-0.003 -0.727438,0.78954 c -0.400092,0.43425 -0.861341,0.83703 -1.025007,0.89507 -0.163662,0.0581 -0.270005,0.15013 -0.23633,0.20462 0.03366,0.0545 -0.541294,0.73181 -1.277724,1.50513 l -1.338961,1.40604 h -3.142905 -3.14291 v 3.6003 3.6003 h 4.547746 c 2.992049,0 4.547745,0.0439 4.547745,0.1282 0,0.0705 -0.582679,1.14993 -1.294844,2.39871 l -1.29484,2.27049 -3.252906,0.001 -3.252901,0.001 v 1.76856 1.76857 h 6.063661 6.06366 v 1.44165 1.44165 l -0.473724,0.0702 c -0.260547,0.0386 -0.928495,0.10557 -1.484332,0.14882 -2.165667,0.1685 -5.03597,0.74891 -6.550725,1.32464 -0.669624,0.25451 -1.208087,0.28807 -1.976295,0.12317 z m -34.234418,-9.42463 c 0,-8.22513 0.0133,-8.75573 0.22107,-8.81887 1.78216,-0.54161 4.96724,-0.97586 7.1253,-0.97145 2.69046,0.005 4.3739,0.40922 5.59722,1.34229 l 0.440959,0.33634 0.603067,-0.36734 c 1.513399,-0.92183 3.172259,-1.33843 5.340299,-1.34114 1.390522,-0.002 1.698102,0.0389 2.575815,0.34031 0.548202,0.18825 1.232327,0.48034 1.520279,0.64909 1.197234,0.70163 2.218684,2.0899 2.648177,3.59919 0.341895,1.20146 0.456112,3.31669 0.456221,8.44892 l 1.05e-4,4.97493 -0.536887,-0.075 c -0.295286,-0.0413 -1.542499,-0.17364 -2.771584,-0.29413 l -2.234698,-0.21909 -0.04717,-5.12295 c -0.03242,-3.52034 -0.09449,-5.26591 -0.198406,-5.57995 -0.262805,-0.79424 -0.687433,-1.29619 -1.411969,-1.66907 -0.609899,-0.31389 -0.794855,-0.35017 -1.515786,-0.29736 -0.451614,0.0331 -1.112362,0.18433 -1.468323,0.33611 l -0.647203,0.27597 0.268224,0.65302 c 0.256321,0.62405 0.269914,0.88707 0.306215,5.92715 l 0.038,5.27412 h -2.585764 c -1.422171,0 -2.675681,0.0345 -2.785581,0.0767 -0.17988,0.069 -0.19983,-0.36553 -0.19983,-4.35204 0,-4.70555 -0.0537,-5.27524 -0.60734,-6.44589 -0.61967,-1.31019 -1.76099,-1.78624 -4.03515,-1.68308 l -0.53688,0.0243 v 6.43413 c 0,6.02008 -0.0142,6.43808 -0.22107,6.49564 -0.1216,0.0339 -0.61764,0.10042 -1.10233,0.14796 -0.48469,0.0476 -1.63584,0.21388 -2.55811,0.36965 l -1.67685,0.28323 z m 44.845819,0.85936 v -6.94425 l 0.947598,-0.84809 c 0.521174,-0.46645 1.194536,-1.0561 1.496353,-1.31033 2.722511,-2.29326 4.121889,-3.6865 5.435574,-5.41174 l 1.377434,-1.80895 h 2.648369 2.648368 l -0.395527,0.45048 c -0.217543,0.24776 -0.720841,0.7252 -1.118445,1.06098 -0.3976,0.33577 -1.318789,1.21314 -2.047078,1.94971 l -1.324169,1.33923 h -1.928736 -1.928731 v 1.87003 1.87003 l -1.515916,1.49724 c -0.833753,0.82349 -1.515913,1.52015 -1.515913,1.54814 0,0.028 0.628289,-0.50667 1.396201,-1.18814 0.767913,-0.68148 1.450075,-1.258 1.515916,-1.28116 0.07093,-0.025 0.119712,0.55416 0.119712,1.42117 v 1.46328 h 4.557008 c 3.685311,0 4.549197,0.0316 4.516162,0.1649 -0.02244,0.0907 -0.609312,1.16937 -1.304103,2.39705 l -1.263266,2.23216 -3.2529,0.003 -3.252901,0.003 v 1.76857 1.76857 h 2.084385 c 1.146409,0 2.084381,0.0496 2.084381,0.11023 0,0.24138 -1.142761,1.1429 -1.917248,1.51253 -1.31464,0.62742 -3.259518,0.97518 -6.830846,1.2214 l -1.231682,0.0849 z m 0,-9.29282 v -2.1992 l 1.331843,-1.17265 c 0.732509,-0.64495 1.506366,-1.393 1.719678,-1.66233 0.356646,-0.4503 0.400963,-0.47175 0.55097,-0.2666 0.14453,0.19766 0.172814,0.15849 0.248104,-0.3436 0.04907,-0.32718 0.227693,-0.74131 0.422651,-0.97985 l 0.337665,-0.41316 2.116471,0.035 2.116465,0.035 -1.26264,1.46464 c -0.871539,1.01098 -1.419508,1.53538 -1.769071,1.69301 -0.278536,0.12561 -0.50643,0.28566 -0.50643,0.35567 0,0.14364 -0.605683,0.80042 -3.374883,3.65966 l -1.930823,1.9936 z m -5.179374,-2.76017 c 0.312656,-0.28804 0.810067,-0.74453 1.105353,-1.01441 0.295291,-0.26988 0.536887,-0.55389 0.536887,-0.63112 0,-0.0772 0.03614,-0.10427 0.08034,-0.0601 0.04417,0.0442 0.606954,-0.37269 1.250595,-0.92639 0.64365,-0.5537 1.204386,-1.00673 1.246091,-1.00673 0.04173,0 0.07582,0.93797 0.07582,2.08438 v 2.08439 l -2.431781,-0.003 -2.431776,-0.003 0.568465,-0.52371 z m 16.319296,-0.48236 c 0.778898,-0.85318 0.93092,-0.9698 0.966748,-0.74162 0.03414,0.21738 0.158619,0.0975 0.631628,-0.60836 0.324019,-0.4835 0.896094,-1.22986 1.271282,-1.65857 l 0.682157,-0.77946 h 1.181158 1.181154 v 2.4002 2.4002 h -3.419184 -3.419179 z m -11.132903,-1.13516 c -0.0051,-1.2151 0.03342,-1.51754 0.235413,-1.84878 0.364488,-0.59775 1.087458,-0.82224 2.504421,-0.77765 l 1.167482,0.0367 -1.950621,2.02122 -1.950622,2.02122 -0.0061,-1.45275 z"
       id="path2075-3"
       inkscape:connector-curvature="0"
       sodipodi:nodetypes="ccccccccccccccccscccccsccccccccccccsssccccccscccccscccccccccssscsccscccccsscccccccccccccccccsscscsccsccccccccscsccscscscsccscccccsscccccccccccssscscscccccccssccccccccccccccscssccccsccsscccccsccccccccccscccccccc" />
    <g
       aria-label="APACHE"
       transform="matrix(0.48575551,0,0,0.45929674,-19.674149,60.004101)"
       style="font-style:normal;font-variant:normal;font-weight:normal;font-stretch:normal;font-size:13.36252785px;line-height:125%;font-family:Montserrat;-inkscape-font-specification:Montserrat;letter-spacing:0px;word-spacing:0px;fill:#ff6600;fill-opacity:1;stroke:none;stroke-width:1.00218952px;stroke-linecap:butt;stroke-linejoin:miter;stroke-opacity:1"
       id="text2094">
      <path
         d="m -204.16875,93.475756 h 0.68509 l 3.99962,9.238934 h -1.31798 l -0.87431,-2.02265 h -4.62599 l -0.94607,2.02265 h -1.23969 z m 2.02265,6.120142 -0.83516,-1.937827 q -0.15659,-0.365382 -0.30666,-0.756862 l -0.26099,-0.737288 q -0.24793,-0.717714 -0.29361,-0.978701 h -0.0783 q -0.0522,0.260987 -0.23489,0.743812 0,0 -0.33276,0.848208 -0.15007,0.365381 -0.32623,0.743812 l -0.97218,2.074846 z"
         style="font-style:normal;font-variant:normal;font-weight:normal;font-stretch:normal;font-family:Spinnaker;-inkscape-font-specification:Spinnaker;letter-spacing:2.33879876px;fill:#ff6600;fill-opacity:1;stroke-width:1.00218952px"
         id="path825"
         inkscape:connector-curvature="0" />
      <path
         d="m -195.76853,93.475756 h 3.66034 q 1.85301,0 2.9622,0.835158 1.20054,0.900405 1.20054,2.590295 0,1.761661 -1.26579,2.805608 -1.20054,0.985223 -3.07964,0.985223 h -2.27059 v 2.02265 h -1.20706 z m 3.64077,6.120142 q 1.33103,0 2.10094,-0.665516 0.80253,-0.691616 0.80253,-1.950877 0,-1.207065 -0.9004,-1.839958 -0.80906,-0.567646 -2.17272,-0.567646 h -2.26406 v 5.023997 z"
         style="font-style:normal;font-variant:normal;font-weight:normal;font-stretch:normal;font-family:Spinnaker;-inkscape-font-specification:Spinnaker;letter-spacing:2.33879876px;fill:#ff6600;fill-opacity:1;stroke-width:1.00218952px"
         id="path827"
         inkscape:connector-curvature="0" />
      <path
         d="m -180.54351,93.475756 h 0.68509 l 3.99963,9.238934 h -1.31799 l -0.8743,-2.02265 h -4.62599 l -0.94608,2.02265 h -1.23969 z m 2.02265,6.120142 -0.83516,-1.937827 q -0.15659,-0.365382 -0.30665,-0.756862 l -0.26099,-0.737288 q -0.24794,-0.717714 -0.29361,-0.978701 h -0.0783 q -0.0522,0.260987 -0.23489,0.743812 0,0 -0.33275,0.848208 -0.15007,0.365381 -0.32624,0.743812 l -0.97217,2.074846 z"
         style="font-style:normal;font-variant:normal;font-weight:normal;font-stretch:normal;font-family:Spinnaker;-inkscape-font-specification:Spinnaker;letter-spacing:2.33879876px;fill:#ff6600;fill-opacity:1;stroke-width:1.00218952px"
         id="path829"
         inkscape:connector-curvature="0" />
      <path
         d="m -165.18158,95.394009 c -0.72206,-0.643767 -1.1417,-0.965651 -2.27699,-0.965651 -1.0309,0 -1.90521,0.339283 -2.62292,1.017849 -0.72641,0.682915 -1.08962,1.533297 -1.08962,2.551146 0,1.052647 0.37408,1.944353 1.12224,2.675117 0.74381,0.72641 1.64639,1.08962 2.70774,1.08962 0,0 1.52306,0.20818 2.38139,-0.40904 l 0.46974,0.90041 c -1.07739,0.57977 -1.8602,0.58851 -2.96861,0.59173 -0.68292,0 -1.32669,-0.11309 -1.93131,-0.33928 -0.60461,-0.23054 -1.13529,-0.55025 -1.59202,-0.95913 -0.45237,-0.41323 -0.81123,-0.90475 -1.07657,-1.47457 -0.26099,-0.569822 -0.39148,-1.143993 -0.39148,-1.722514 0,-0.578521 0.0587,-1.078746 0.17617,-1.500675 0.12179,-0.426279 0.29361,-0.817759 0.51545,-1.174441 0.22184,-0.361031 0.48718,-0.68509 0.79601,-0.972176 0.30883,-0.287085 0.65247,-0.530673 1.0309,-0.730763 0.79166,-0.417579 1.65509,-0.626369 2.59029,-0.626369 1.26579,0 1.84854,0.361032 2.76635,1.083096 z"
         style="font-style:normal;font-variant:normal;font-weight:normal;font-stretch:normal;font-family:Spinnaker;-inkscape-font-specification:Spinnaker;letter-spacing:2.33879876px;fill:#ff6600;fill-opacity:1;stroke-width:1.00218952px"
         id="path831"
         inkscape:connector-curvature="0"
         sodipodi:nodetypes="cscsccccccccsccccscc" />
      <path
         d="m -160.06968,93.475756 h 1.20707 v 5.017473 h 5.66994 v -5.017473 h 1.20706 v 9.238934 h -1.20706 v -3.125317 h -5.66994 v 3.125317 h -1.20707 z"
         style="font-style:normal;font-variant:normal;font-weight:normal;font-stretch:normal;font-family:Spinnaker;-inkscape-font-specification:Spinnaker;letter-spacing:2.33879876px;fill:#ff6600;fill-opacity:1;stroke-width:1.00218952px"
         id="path833"
         inkscape:connector-curvature="0" />
      <path
         d="m -147.23921,93.475756 h 6.89658 v 1.096145 h -5.68951 v 4.692766 h 4.05158 l -0.50904,1.096143 h -3.54254 v 1.25774 h 5.82 v 1.09614 h -7.02707 z"
         style="font-style:normal;font-variant:normal;font-weight:normal;font-stretch:normal;font-family:Spinnaker;-inkscape-font-specification:Spinnaker;letter-spacing:2.33879876px;fill:#ff6600;fill-opacity:1;stroke-width:1.00218952px"
         id="path835"
         inkscape:connector-curvature="0"
         sodipodi:nodetypes="ccccccccccccc" />
    </g>
  </g>
</svg>
