<?xml version="1.0" encoding="utf-8"?>
<!-- Generator: Adobe Illustrator 15.0.0, SVG Export Plug-In . SVG Version: 6.00 Build 0)  -->
<!DOCTYPE svg PUBLIC "-//W3C//DTD SVG 1.1//EN" "http://www.w3.org/Graphics/SVG/1.1/DTD/svg11.dtd">
<svg version="1.1"  xmlns="http://www.w3.org/2000/svg" xmlns:xlink="http://www.w3.org/1999/xlink" x="0px" y="0px"
	 width="48px" height="48px" viewBox="0 0 48 48" enable-background="new 0 0 48 48" xml:space="preserve">
<path fill="#00BCD4" d="M42,37c0,2.762-2.238,5-5,5H11c-2.761,0-5-2.238-5-5V11c0-2.762,2.239-5,5-5h26c2.762,0,5,2.238,5,5V37z"/>
<g>
	<g>
		<path fill="#FFFFFF" d="M12.064,26.815l1.066-1.78h1.811l-1.805,2.922L15.018,31h-1.816l-1.131-1.874L10.945,31H9.123l1.881-3.043
			l-1.799-2.922h1.816L12.064,26.815z"/>
	</g>
	<path fill="#FFFFFF" d="M34.1,21.686c1.171,0,2.181,0.43,2.9,1.29c0.719,0.86,1.079,1.988,1.079,3.386
		c0,0.866-0.21,1.661-0.632,2.385c-0.42,0.723-1.008,1.289-1.762,1.697C34.93,30.852,34.093,31,33.174,31
		c-0.996,0-1.885-0.164-2.668-0.604c-0.785-0.439-1.395-1.067-1.832-1.885c-0.437-0.816-0.661-1.758-0.674-2.824v-1.263
		c0-1.401,0.311-2.663,0.93-3.782c0.62-1.119,1.505-1.996,2.654-2.632c1.15-0.636,2.426-0.955,3.826-0.955H36v2.479h-0.243
		c-1.214,0-2.211,0.282-2.992,0.847c-0.78,0.564-1.47,1.348-1.649,2.352C31.115,22.732,31.906,21.686,34.1,21.686z M32.973,24.117
		c-0.432,0-0.791,0.095-1.08,0.287c-0.289,0.193-0.777,0.791-0.777,1.649c0,1.571,0.745,2.57,1.973,2.57
		c0.494,0,0.907-0.215,1.238-0.643c0.33-0.429,0.496-0.966,0.496-1.611c0-0.664-0.169-1.206-0.506-1.624
		C33.979,24.326,33.531,24.117,32.973,24.117z"/>
	<path fill="#FFFFFF" d="M26.715,20.835c0,0.661-0.173,1.244-0.517,1.748c-0.345,0.505-0.819,0.91-1.423,1.216
		c0.683,0.317,1.225,0.753,1.624,1.305C26.8,25.655,27,26.309,27,27.063c0,1.216-0.441,2.177-1.324,2.881
		C24.793,30.647,23.578,31,22.029,31c-1.555,0-2.782-0.354-3.681-1.062C17.449,29.231,17,28.272,17,27.063
		c0-0.729,0.196-1.374,0.591-1.937c0.394-0.561,0.951-1.003,1.673-1.327c-0.61-0.306-1.089-0.711-1.438-1.216
		c-0.348-0.504-0.522-1.087-0.522-1.748c0-1.186,0.423-2.121,1.27-2.807C19.421,17.343,20.563,17,22,17
		c1.45,0,2.598,0.343,3.445,1.028C26.291,18.714,26.715,19.649,26.715,20.835z M23.673,26.81c0-0.561-0.152-0.992-0.458-1.294
		c-0.306-0.303-0.708-0.454-1.206-0.454s-0.902,0.151-1.21,0.454c-0.309,0.302-0.463,0.733-0.463,1.294
		c0,0.543,0.156,0.971,0.468,1.287c0.312,0.315,0.719,0.472,1.225,0.472c0.493,0,0.889-0.156,1.191-0.468
		C23.522,27.789,23.673,27.359,23.673,26.81z M22,19.432c-0.446,0-0.786,0.139-1.019,0.416c-0.232,0.278-0.349,0.662-0.349,1.155
		c0,0.485,0.118,0.879,0.354,1.178c0.237,0.3,0.584,0.449,1.043,0.449c0.453,0,0.792-0.149,1.019-0.449
		c0.226-0.299,0.339-0.692,0.339-1.178c0-0.486-0.117-0.87-0.349-1.15C22.806,19.571,22.459,19.432,22,19.432z"/>
</g>
</svg>
